<?xml version="1.0" encoding="utf-8"?>
<!-- Generator: Adobe Illustrator 25.2.0, SVG Export Plug-In . SVG Version: 6.00 Build 0)  -->
<svg version="1.1" id="Layer_1" xmlns="http://www.w3.org/2000/svg" xmlns:xlink="http://www.w3.org/1999/xlink" x="0px" y="0px"
	 viewBox="0 0 1000 1000" style="enable-background:new 0 0 1000 1000;" xml:space="preserve">
<style type="text/css">
	.st0{fill:#F4949C;}
	.st1{fill:#69BCE9;}
	.st2{fill:#A2D297;}
</style>
<g>
	<rect x="0.5" y="166.3" class="st0" width="31.1" height="666.6"/>
	<rect x="43.7" y="166.3" class="st0" width="31.1" height="666.6"/>
	<rect x="86.8" y="166.3" class="st0" width="31.1" height="666.6"/>
	<rect x="130" y="166.3" class="st0" width="31.1" height="666.6"/>
	<rect x="173.1" y="166.3" class="st0" width="31.1" height="666.6"/>
	<rect x="216.3" y="166.3" class="st0" width="31.1" height="666.6"/>
	<rect x="259.5" y="166.3" class="st0" width="31.1" height="666.6"/>
	<rect x="302.6" y="166.3" class="st0" width="31.1" height="666.6"/>
</g>
<g>
	<path class="st1" d="M667,499.6L667,499.6C667,499.6,667,499.6,667,499.6c0,0.1,0,0.1,0,0.1v0h0c0,10.5-0.5,20.9-1.5,31.1
		c0,0,0,0.1,0,0.1h32.7L667,499.7l31.2-31.2h-32.7C666.5,478.7,667,489.1,667,499.6L667,499.6z"/>
	<path class="st1" d="M664.2,456.4L664.2,456.4h46.1l31.1-31.1h-82.8l0,0C661,435.5,662.8,445.9,664.2,456.4z"/>
	<path class="st1" d="M655.6,413.2l97.8,0l31.1-31.1l-139,0C649.4,392.3,652.8,402.7,655.6,413.2
		C655.6,413.2,655.6,413.2,655.6,413.2z"/>
	<path class="st1" d="M640.8,370.1l155.9,0l31.1-31.1l-202.1,0C631.2,349,636.3,359.4,640.8,370.1L640.8,370.1z"/>
	<path class="st1" d="M839.8,326.9l31.1-31.1l-273.7,0c7.7,9.9,14.9,20.3,21.4,31.1L839.8,326.9z"/>
	<path class="st1" d="M587.4,283.8l295.6,0l31.1-31.1l-356.9,0l0,0C568,262.4,578.1,272.8,587.4,283.8z"/>
	<path class="st1" d="M543.2,240.6l383,0l31.1-31.1l-459.7,0c0,0,0,0,0,0C513.7,218.6,528.9,229,543.2,240.6z"/>
	<path class="st1" d="M474.2,197.5l495.1,0l31.1-31.1l-666.9,0c0,0,0,0,0.1,0v0C383.9,166.3,431.5,177.5,474.2,197.5z"/>
	<path class="st1" d="M658.6,574L658.6,574l82.8,0l-31.1-31.1l-46.1,0l0,0C662.8,553.4,661,563.8,658.6,574z"/>
	<path class="st1" d="M784.6,617.1L753.5,586h-97.8c-2.8,10.6-6.2,21-10,31.1L784.6,617.1z"/>
	<path class="st1" d="M625.7,660.3l202.1,0l-31.1-31.1H640.8C636.3,639.8,631.2,650.2,625.7,660.3L625.7,660.3z"/>
	<path class="st1" d="M597.2,703.4l273.7,0l-31.1-31.1l-221.1,0C612.1,683.1,605,693.5,597.2,703.4L597.2,703.4z"/>
	<path class="st1" d="M557.3,746.6L557.3,746.6l356.9,0L883,715.5l-295.6,0C578.1,726.5,568,736.9,557.3,746.6z"/>
	<path class="st1" d="M497.6,789.7l459.7,0l-31.1-31.1l-383,0C528.9,770.2,513.7,780.6,497.6,789.7
		C497.6,789.7,497.6,789.7,497.6,789.7z"/>
	<path class="st1" d="M333.6,832.9L333.6,832.9L333.6,832.9C333.7,832.9,333.7,832.9,333.6,832.9z"/>
	<path class="st1" d="M1000.5,832.9l-31.1-31.1l-495.1,0c-42.5,19.8-89.8,31-139.6,31.1L1000.5,832.9z"/>
	<path class="st2" d="M623.9,499.6c0-160-130.2-290.1-290.1-290.1v31.1c142.8,0,259,116.2,259,259l0,0c0,142.8-116.2,259-259,259
		v31.1C493.7,789.7,623.8,659.6,623.9,499.6L623.9,499.6C623.9,499.6,623.9,499.6,623.9,499.6C623.9,499.6,623.9,499.6,623.9,499.6
		L623.9,499.6C623.9,499.6,623.9,499.6,623.9,499.6L623.9,499.6z"/>
	<path class="st2" d="M333.7,283.8c119,0,215.9,96.8,215.9,215.8l0,0c0,119-96.8,215.8-215.9,215.8v31.1c136.2,0,247-110.8,247-247
		h0c0,0,0,0,0,0s0,0,0,0h0c0,0,0,0,0,0h0c0-136.2-110.8-247-247-247V283.8z"/>
	<path class="st2" d="M333.7,326.9c95.2,0,172.7,77.5,172.7,172.7l0,0c0,95.2-77.5,172.7-172.7,172.7v31.1
		c112.4,0,203.8-91.4,203.8-203.8h0c0,0,0,0,0,0s0,0,0,0h0c0,0,0,0,0,0h0c0-112.4-91.4-203.8-203.8-203.8V326.9z"/>
	<path class="st2" d="M333.7,370.1c71.4,0,129.5,58.1,129.5,129.5l0,0c0,71.4-58.1,129.5-129.5,129.5v31.1
		c88.6,0,160.6-72.1,160.7-160.6h0c0,0,0,0,0,0s0,0,0,0h0c0,0,0,0,0,0h0c0-88.6-72.1-160.6-160.7-160.6V370.1z"/>
	<path class="st2" d="M333.7,413.2c47.6,0,86.4,38.7,86.4,86.4l0,0c0,47.6-38.8,86.4-86.4,86.4v31.1c64.8,0,117.5-52.7,117.5-117.5
		h0c0,0,0,0,0,0s0,0,0,0h0c0,0,0,0,0,0h0c0-64.8-52.7-117.5-117.5-117.5V413.2z"/>
	<path class="st2" d="M333.7,456.4c23.8,0,43.2,19.4,43.2,43.2l0,0c0,23.8-19.4,43.2-43.2,43.2V574c41,0,74.3-33.3,74.3-74.3h0
		c0,0,0,0,0,0s0,0,0,0h0h0c0,0,0,0,0,0h0c0-41-33.4-74.3-74.3-74.3V456.4z"/>
	<path class="st2" d="M364.9,499.6L364.9,499.6c0-17.2-14-31.2-31.2-31.2l0,62.3C350.9,530.8,364.9,516.8,364.9,499.6L364.9,499.6
		C364.9,499.6,364.9,499.6,364.9,499.6C364.9,499.6,364.9,499.6,364.9,499.6L364.9,499.6L364.9,499.6
		C364.9,499.6,364.9,499.6,364.9,499.6C364.9,499.6,364.9,499.6,364.9,499.6z"/>
	<path class="st2" d="M334.6,832.9c49.9-0.1,97.2-11.3,139.6-31.1l0,0c8-3.7,15.7-7.7,23.4-12c0,0,0,0,0,0
		c16.1-9.1,31.3-19.5,45.6-31.1l0,0c4.8-3.9,9.5-7.9,14.1-12l0,0c10.7-9.7,20.8-20.1,30.2-31.1l0,0c3.4-3.9,6.6-8,9.8-12h0
		c7.7-9.9,14.9-20.3,21.4-31.1l0,0c2.4-4,4.7-8,7-12l0,0c5.6-10.1,10.6-20.4,15.2-31.1l0,0c1.7-4,3.3-8,4.8-12l0,0
		c3.8-10.1,7.2-20.5,10-31.1c1.1-4,2.1-8,3-12l0,0c2.3-10.2,4.2-20.6,5.6-31.1l0,0c0.5-3.9,0.9-7.9,1.3-11.9c0,0,0-0.1,0-0.1
		c1-10.2,1.5-20.7,1.5-31.1h0v0c0,0,0,0,0,0c0,0,0,0,0-0.1v0h0c0-10.5-0.5-20.9-1.5-31.1c-0.4-4-0.8-8.1-1.3-12v0
		c-1.4-10.5-3.2-20.9-5.6-31.1l0,0c-0.9-4-1.9-8.1-3-12c0,0,0,0,0,0c-2.8-10.6-6.2-21-10-31.1v0c-1.5-4-3.1-8.1-4.8-12l0,0
		c-4.5-10.7-9.6-21-15.2-31.1c0,0,0,0,0,0c-2.2-4.1-4.6-8.1-7-12l0,0c-6.6-10.8-13.7-21.2-21.4-31.1h0c-3.2-4.1-6.4-8.1-9.8-12h0
		c-9.4-11-19.4-21.4-30.2-31.1l0,0c-4.6-4.1-9.3-8.2-14.1-12l0,0c-14.3-11.6-29.5-22-45.6-31.1c0,0,0,0,0,0
		c-7.6-4.3-15.4-8.3-23.4-12l0,0c-42.7-19.9-90.3-31.1-140.5-31.1v0v31.1c166.6,0,302.2,135.5,302.2,302.2l0,0
		c0,166.6-135.6,302.2-302.2,302.2l0,31.1v0v0C334,832.9,334.3,832.9,334.6,832.9z"/>
</g>
</svg>
